<svg xmlns="http://www.w3.org/2000/svg"  viewBox="0 0 64 64" width="64px" height="64px"><polygon fill="#faefde" points="53.326,30.889 55.16,30.889 56.472,34.097 54.306,36.722"/><path fill="#faefde" d="M33,5c-9,0-19.92,5.088-19.92,15.044s0.496,10.345,0.496,10.345S10.514,30.514,9.181,32	s-1.306,4.125-0.806,7s4.222,8.014,7.75,7.792c1.833-0.056,2.417-0.944,2.417-0.944s3.778,6.528,6.736,7.944	c2.958,1.417,6.792,5.875,12.417,5.875s15.917-10.5,15.917-18.5S52.265,34.208,52.653,32c0.388-2.208,0.127-9.65-0.833-13.375	C50.859,14.9,49.181,5,33,5z"/><path fill="none" stroke="#8d6c9f" stroke-linecap="round" stroke-linejoin="round" stroke-miterlimit="10" stroke-width="2" d="M19,46	c0,0,2,4,5,7c2.115,2.115,9.299,7.005,14,7.005C44.204,60.005,54,48,54,40c0-4-1.128-6.003-1-9C54,7.556,42.667,5,32,5	c-11,0-19.118,6.687-19,17c0.083,7.313,0,9,0,9s-2.236-0.139-3.139,0.236C8.276,31.894,8,34,8,34s-0.083,4.579,0.396,6.001	C9.244,42.519,13.316,47,16,47C18,47,19,46,19,46z"/><path fill="none" stroke="#8d6c9f" stroke-linecap="round" stroke-linejoin="round" stroke-miterlimit="10" stroke-width="2" d="M23,27	c0,0,3-4,8.625-4C33.083,23,34,24,34,24"/><path fill="none" stroke="#8d6c9f" stroke-linecap="round" stroke-linejoin="round" stroke-miterlimit="10" stroke-width="2" d="M45,24	c0,0,1-1,2.354-1C50,23,52,25,52,25"/><path fill="#ace3ff" d="M30.333,5.667h7.611c0,0,3.944,5.722,4.5,8.083l3.694-0.25l-6.333,9.806l-9.083-8.819l5.611-0.875	L30.333,5.667z"/><path fill="none" stroke="#8d6c9f" stroke-linecap="round" stroke-linejoin="round" stroke-miterlimit="10" stroke-width="2" d="M29.421,5.314C32,6.722,36,10.597,36,14h-6l10,10l6-10h-4c0,0-0.642-5.239-4.765-8.714"/><path fill="none" stroke="#8d6c9f" stroke-linecap="round" stroke-linejoin="round" stroke-miterlimit="10" stroke-width="2" d="M13.028,40.986l1.569,0.889c0.414,0.414,0.676-0.273,1.09-0.688h0c0.414-0.414,0.414-1.086,0-1.5L15,39v-3c0,0-1-1-2-1s-1,1-1,1"/><path fill="#fff" d="M26.415,37h6.445c0.957-0.876,1.567-2.123,1.567-3.523c0-2.645-2.145-4.79-4.79-4.79	s-4.79,2.145-4.79,4.79C24.847,34.877,25.458,36.124,26.415,37z"/><path fill="none" stroke="#8d6c9f" stroke-linecap="round" stroke-linejoin="round" stroke-miterlimit="10" stroke-width="2" d="M24,33	c0,0,2-4,6-4s5,4,5,4"/><path fill="#8d6c9f" d="M32,34c-0.552,0-1-0.448-1-1c0-0.552,0.448-1,1-1c0.094,0,0.179,0.029,0.266,0.054	C31.716,31.414,30.91,31,30,31c-1.657,0-3,1.343-3,3s1.343,3,3,3s3-1.343,3-3c0-0.221-0.027-0.434-0.072-0.641	C32.783,33.733,32.425,34,32,34z"/><path fill="#fff" d="M46.115,36.25l0.35,0.75h2.118c1.098-0.685,1.861-2.102,1.861-3.756c0-2.32-1.486-4.2-3.319-4.2	s-3.319,1.88-3.319,4.2C43.806,34.898,45.017,35.565,46.115,36.25z"/><path fill="#8d6c9f" d="M48,34c-0.552,0-1-0.448-1-1c0-0.552,0.448-1,1-1c0.151,0,0.291,0.039,0.419,0.099	C47.96,31.433,47.276,31,46.5,31c-1.381,0-2.5,1.343-2.5,3s1.119,3,2.5,3s2.5-1.343,2.5-3c0-0.23-0.026-0.452-0.067-0.668	C48.795,33.719,48.434,34,48,34z"/><path fill="none" stroke="#8d6c9f" stroke-linecap="round" stroke-linejoin="round" stroke-miterlimit="10" stroke-width="2" d="M43.958,34c0,0,0.042-5,4.042-5c2,0,3,3,3,3"/><polygon fill="#fff" points="30,47.479 33.09,48.292 43.819,48.521 41.132,52 33.299,50.938"/><path fill="none" stroke="#8d6c9f" stroke-linecap="round" stroke-linejoin="round" stroke-miterlimit="10" stroke-width="2" d="M13,31	c0,0,1,0,3,1"/><path fill="none" stroke="#8d6c9f" stroke-linecap="round" stroke-linejoin="round" stroke-miterlimit="10" stroke-width="2" d="M47,46	l-2,2H33l-5-2c0,0,4,6,7.575,6H42l2.438-3.594"/><path fill="none" stroke="#8d6c9f" stroke-linecap="round" stroke-linejoin="round" stroke-miterlimit="10" stroke-width="2" d="M42,44	l0.91-0.91c0.634-0.634,0.732-1.627,0.235-2.373L42,39"/><line x1="38.5" x2="39" y1="42.5" y2="43" fill="none" stroke="#8d6c9f" stroke-linecap="round" stroke-linejoin="round" stroke-miterlimit="10" stroke-width="2"/><path fill="none" stroke="#8d6c9f" stroke-linecap="round" stroke-linejoin="round" stroke-miterlimit="10" stroke-width="2" d="M54.049,30.446l0.627,0.118c0.532,0.1,0.981,0.453,1.203,0.947l0.766,1.701c0.222,0.494,0.189,1.066-0.09,1.53L54,39"/><path fill="#8d6c9f" d="M50.254,7.894c-0.254,0-0.508-0.097-0.703-0.289c-0.393-0.389-0.396-1.021-0.008-1.414 l1.406-1.422c0.388-0.394,1.021-0.396,1.414-0.008c0.393,0.389,0.396,1.021,0.008,1.414l-1.406,1.422 C50.77,7.795,50.512,7.894,50.254,7.894z"/><path fill="#8d6c9f" d="M53.42,12.063c-0.348,0-0.687-0.182-0.87-0.506c-0.273-0.48-0.105-1.091,0.375-1.363l1.739-0.988 c0.482-0.272,1.092-0.104,1.363,0.375c0.273,0.48,0.105,1.091-0.375,1.363l-1.739,0.988 C53.757,12.021,53.587,12.063,53.42,12.063z"/><path fill="#8d6c9f" d="M55.488,16.937c-0.429,0-0.825-0.277-0.957-0.708c-0.16-0.528,0.138-1.088,0.665-1.249 l1.913-0.583c0.535-0.158,1.088,0.139,1.249,0.665c0.16,0.528-0.138,1.088-0.665,1.249l-1.913,0.583 C55.683,16.923,55.584,16.937,55.488,16.937z"/><path fill="#8d6c9f" d="M56.613,22.18c-0.491,0-0.92-0.362-0.989-0.862c-0.076-0.548,0.306-1.053,0.853-1.128l1.98-0.274 c0.548-0.084,1.052,0.306,1.128,0.853c0.076,0.548-0.306,1.053-0.853,1.128l-1.98,0.274C56.705,22.177,56.659,22.18,56.613,22.18 z"/></svg>